<mxfile host="Electron" modified="2024-05-30T01:35:28.261Z" agent="Mozilla/5.0 (X11; Linux x86_64) AppleWebKit/537.36 (KHTML, like Gecko) draw.io/24.4.8 Chrome/124.0.6367.207 Electron/30.0.6 Safari/537.36" etag="vxKWQy7pcYG3CiOtDTy0" version="24.4.8" type="device">
  <diagram id="R2lEEEUBdFMjLlhIrx00" name="Page-1">
    <mxGraphModel dx="880" dy="558" grid="1" gridSize="10" guides="1" tooltips="1" connect="1" arrows="1" fold="1" page="1" pageScale="1" pageWidth="850" pageHeight="1100" math="0" shadow="0" extFonts="Permanent Marker^https://fonts.googleapis.com/css?family=Permanent+Marker">
      <root>
        <mxCell id="0" />
        <mxCell id="1" parent="0" />
        <mxCell id="1_Wyov7VIp50l4MtbYSf-12" style="rounded=0;orthogonalLoop=1;jettySize=auto;html=1;exitX=1;exitY=0.5;exitDx=0;exitDy=0;entryX=0;entryY=0.5;entryDx=0;entryDy=0;endArrow=none;endFill=0;" edge="1" parent="1" source="1_Wyov7VIp50l4MtbYSf-1" target="1_Wyov7VIp50l4MtbYSf-11">
          <mxGeometry relative="1" as="geometry" />
        </mxCell>
        <mxCell id="1_Wyov7VIp50l4MtbYSf-1" value="BOOK" style="whiteSpace=wrap;html=1;align=center;" vertex="1" parent="1">
          <mxGeometry x="70" y="160" width="100" height="40" as="geometry" />
        </mxCell>
        <mxCell id="1_Wyov7VIp50l4MtbYSf-2" value="MEMBER" style="whiteSpace=wrap;html=1;align=center;" vertex="1" parent="1">
          <mxGeometry x="470" y="160" width="100" height="40" as="geometry" />
        </mxCell>
        <mxCell id="1_Wyov7VIp50l4MtbYSf-4" style="rounded=0;orthogonalLoop=1;jettySize=auto;html=1;exitX=0.5;exitY=1;exitDx=0;exitDy=0;entryX=0.75;entryY=0;entryDx=0;entryDy=0;endArrow=none;endFill=0;" edge="1" parent="1" source="1_Wyov7VIp50l4MtbYSf-3" target="1_Wyov7VIp50l4MtbYSf-1">
          <mxGeometry relative="1" as="geometry" />
        </mxCell>
        <mxCell id="1_Wyov7VIp50l4MtbYSf-3" value="Id" style="ellipse;whiteSpace=wrap;html=1;align=center;" vertex="1" parent="1">
          <mxGeometry x="130" y="90" width="80" height="30" as="geometry" />
        </mxCell>
        <mxCell id="1_Wyov7VIp50l4MtbYSf-6" style="rounded=0;orthogonalLoop=1;jettySize=auto;html=1;exitX=0.5;exitY=1;exitDx=0;exitDy=0;entryX=0.5;entryY=0;entryDx=0;entryDy=0;endArrow=none;endFill=0;" edge="1" parent="1" source="1_Wyov7VIp50l4MtbYSf-5" target="1_Wyov7VIp50l4MtbYSf-1">
          <mxGeometry relative="1" as="geometry" />
        </mxCell>
        <mxCell id="1_Wyov7VIp50l4MtbYSf-5" value="Title" style="ellipse;whiteSpace=wrap;html=1;align=center;" vertex="1" parent="1">
          <mxGeometry x="40" y="80" width="80" height="30" as="geometry" />
        </mxCell>
        <mxCell id="1_Wyov7VIp50l4MtbYSf-7" style="rounded=0;orthogonalLoop=1;jettySize=auto;html=1;exitX=0.5;exitY=1;exitDx=0;exitDy=0;entryX=0.75;entryY=0;entryDx=0;entryDy=0;endArrow=none;endFill=0;" edge="1" parent="1" source="1_Wyov7VIp50l4MtbYSf-8" target="1_Wyov7VIp50l4MtbYSf-2">
          <mxGeometry relative="1" as="geometry">
            <mxPoint x="555" y="130" as="targetPoint" />
          </mxGeometry>
        </mxCell>
        <mxCell id="1_Wyov7VIp50l4MtbYSf-8" value="Id" style="ellipse;whiteSpace=wrap;html=1;align=center;" vertex="1" parent="1">
          <mxGeometry x="540" y="60" width="80" height="30" as="geometry" />
        </mxCell>
        <mxCell id="1_Wyov7VIp50l4MtbYSf-9" style="rounded=0;orthogonalLoop=1;jettySize=auto;html=1;exitX=0.5;exitY=1;exitDx=0;exitDy=0;entryX=0.6;entryY=-0.075;entryDx=0;entryDy=0;endArrow=none;endFill=0;entryPerimeter=0;" edge="1" parent="1" source="1_Wyov7VIp50l4MtbYSf-10" target="1_Wyov7VIp50l4MtbYSf-2">
          <mxGeometry relative="1" as="geometry">
            <mxPoint x="530" y="130" as="targetPoint" />
          </mxGeometry>
        </mxCell>
        <mxCell id="1_Wyov7VIp50l4MtbYSf-10" value="Name" style="ellipse;whiteSpace=wrap;html=1;align=center;" vertex="1" parent="1">
          <mxGeometry x="450" y="50" width="80" height="30" as="geometry" />
        </mxCell>
        <mxCell id="1_Wyov7VIp50l4MtbYSf-11" value="ISSUED_TO" style="shape=rhombus;perimeter=rhombusPerimeter;whiteSpace=wrap;html=1;align=center;" vertex="1" parent="1">
          <mxGeometry x="260" y="150" width="120" height="60" as="geometry" />
        </mxCell>
        <mxCell id="1_Wyov7VIp50l4MtbYSf-13" style="rounded=0;orthogonalLoop=1;jettySize=auto;html=1;entryX=0;entryY=0.5;entryDx=0;entryDy=0;endArrow=none;endFill=0;" edge="1" parent="1" source="1_Wyov7VIp50l4MtbYSf-11" target="1_Wyov7VIp50l4MtbYSf-2">
          <mxGeometry relative="1" as="geometry">
            <mxPoint x="370" y="199" as="sourcePoint" />
            <mxPoint x="460" y="199" as="targetPoint" />
          </mxGeometry>
        </mxCell>
      </root>
    </mxGraphModel>
  </diagram>
</mxfile>
